<svg xmlns="http://www.w3.org/2000/svg" viewBox="0 0 20.8 20.8">
  <defs>
    <style>
      .cls-1 {
        fill: #fff;
      }
    </style>
  </defs>
  <path id="path" class="cls-1" d="M19.018,3.891h1.415A2.367,2.367,0,0,1,22.8,6.258V20.433A2.366,2.366,0,0,1,20.433,22.8H4.367A2.367,2.367,0,0,1,2,20.433V6.258A2.366,2.366,0,0,1,4.367,3.891H5.782V2.945a.945.945,0,1,1,1.891,0v.945H9.564V2.945a.945.945,0,1,1,1.891,0v.945h1.891V2.945a.945.945,0,1,1,1.891,0v.945h1.891V2.945a.945.945,0,1,1,1.891,0v.945Zm0,1.891v.945a.945.945,0,0,1-1.891,0V5.782H15.236v.945a.945.945,0,0,1-1.891,0V5.782H11.455v.945a.945.945,0,0,1-1.891,0V5.782H7.673v.945a.945.945,0,0,1-1.891,0V5.782H4.367a.475.475,0,0,0-.476.476V20.433a.476.476,0,0,0,.476.476H20.433a.475.475,0,0,0,.476-.476V6.258a.476.476,0,0,0-.476-.476ZM6.727,11.927a.945.945,0,0,1,0-1.891h9.927a.945.945,0,0,1,0,1.891Zm0,3.309a.945.945,0,1,1,0-1.891H18.073a.945.945,0,1,1,0,1.891Zm0,3.309a.945.945,0,1,1,0-1.891h6.618a.945.945,0,1,1,0,1.891Z" transform="translate(-2 -2)"/>
</svg>
