<?xml version="1.0" encoding="iso-8859-1"?>
<!-- Generator: Adobe Illustrator 16.0.0, SVG Export Plug-In . SVG Version: 6.00 Build 0)  -->
<!DOCTYPE svg PUBLIC "-//W3C//DTD SVG 1.1//EN" "http://www.w3.org/Graphics/SVG/1.1/DTD/svg11.dtd">
<svg version="1.1" id="Capa_1" xmlns="http://www.w3.org/2000/svg" xmlns:xlink="http://www.w3.org/1999/xlink" x="0px" y="0px"
	 width="79.536px" height="79.536px" viewBox="0 0 79.536 79.536" style="enable-background:new 0 0 79.536 79.536;"
	 xml:space="preserve">
<g>
	<path style="fill:#010002;" d="M66.327,36.534H13.205c0-8.994,7.291-16.28,16.28-16.28h4.554V0h11.452v20.249h4.557
		C59.036,20.249,66.327,27.535,66.327,36.534z M42.479,43.025v-0.026c0-1.496-1.214-2.7-2.713-2.7c-1.502,0-2.716,1.229-2.716,2.727
		c0,1.496,1.214,2.713,2.716,2.713C41.266,45.738,42.479,44.521,42.479,43.025z M42.479,65.581v-0.057
		c0-1.502-1.214-2.693-2.713-2.693c-1.502,0-2.716,1.243-2.716,2.75c0,1.496,1.214,2.713,2.716,2.713
		C41.266,68.294,42.479,67.077,42.479,65.581z M42.479,54.308v-0.062c0-1.497-1.214-2.683-2.713-2.683
		c-1.502,0-2.716,1.238-2.716,2.744c0,1.492,1.214,2.714,2.716,2.714C41.266,57.021,42.479,55.8,42.479,54.308z M42.479,76.822
		v-0.03c0-1.497-1.214-2.703-2.713-2.703c-1.502,0-2.716,1.232-2.716,2.733c0,1.502,1.214,2.714,2.716,2.714
		C41.266,79.536,42.479,78.324,42.479,76.822z M71.63,76.294c1.398-0.554,2.066-2.133,1.512-3.521l-0.021-0.058
		c-0.554-1.393-2.123-2.055-3.511-1.475c-1.403,0.549-2.061,2.153-1.502,3.541c0.425,1.066,1.435,1.709,2.517,1.709
		C70.957,76.491,71.299,76.424,71.63,76.294z M67.886,66.052c1.394-0.549,2.066-2.133,1.513-3.521l-0.021-0.058
		c-0.559-1.393-2.133-2.065-3.516-1.48c-1.397,0.554-2.061,2.159-1.496,3.547c0.419,1.062,1.439,1.709,2.517,1.709
		C67.213,66.249,67.555,66.187,67.886,66.052z M63.914,55.893c1.435-0.43,2.248-1.941,1.817-3.376l-0.015-0.052
		c-0.431-1.439-1.927-2.227-3.371-1.792c-1.435,0.425-2.242,1.957-1.808,3.402c0.342,1.176,1.43,1.932,2.589,1.932
		C63.392,56.007,63.65,55.976,63.914,55.893z M60.398,45.567c1.393-0.549,2.066-2.133,1.512-3.519l-0.021-0.054
		c-0.554-1.388-2.128-2.056-3.516-1.484c-1.393,0.557-2.056,2.162-1.496,3.555c0.424,1.052,1.439,1.699,2.521,1.699
		C59.726,45.765,60.072,45.702,60.398,45.567z M55.646,78.034c1.47-0.29,2.428-1.719,2.128-3.189l-0.011-0.052
		c-0.295-1.471-1.734-2.413-3.185-2.103c-1.476,0.29-2.423,1.75-2.123,3.211c0.259,1.294,1.388,2.185,2.651,2.185
		C55.293,78.097,55.474,78.075,55.646,78.034z M53.708,67.306c1.492-0.15,2.574-1.481,2.429-2.978l-0.005-0.052
		c-0.146-1.486-1.471-2.574-2.967-2.397c-1.492,0.145-2.579,1.501-2.429,2.993c0.14,1.397,1.32,2.443,2.697,2.443
		C53.522,67.315,53.615,67.315,53.708,67.306z M52.29,56.483c1.47-0.291,2.423-1.715,2.128-3.19l-0.011-0.052
		c-0.284-1.46-1.719-2.393-3.18-2.092c-1.47,0.29-2.418,1.74-2.123,3.211c0.26,1.294,1.389,2.18,2.651,2.18
		C51.938,56.54,52.118,56.524,52.29,56.483z M50.617,45.712c1.471-0.289,2.429-1.719,2.128-3.189l-0.01-0.052
		c-0.296-1.468-1.751-2.405-3.186-2.097c-1.476,0.285-2.418,1.737-2.122,3.21c0.264,1.29,1.393,2.181,2.65,2.181
		C50.265,45.765,50.446,45.749,50.617,45.712z M11.424,74.782l0.023-0.052c0.557-1.388-0.125-2.94-1.522-3.489
		c-1.375-0.56-2.98,0.134-3.531,1.532c-0.552,1.388,0.111,2.967,1.509,3.521c0.329,0.13,0.676,0.197,1.004,0.197
		C9.987,76.491,10.999,75.849,11.424,74.782z M15.167,64.54l0.021-0.052c0.557-1.388-0.122-2.941-1.515-3.495
		c-1.38-0.555-2.98,0.14-3.537,1.538c-0.552,1.388,0.116,2.972,1.509,3.521c0.329,0.135,0.673,0.197,1.002,0.197
		C13.73,66.249,14.748,65.602,15.167,64.54z M18.997,54.075l0.015-0.057c0.435-1.439-0.393-2.921-1.823-3.346
		c-1.46-0.455-2.959,0.404-3.384,1.844c-0.43,1.435,0.381,2.946,1.817,3.376c0.267,0.083,0.526,0.114,0.779,0.114
		C17.57,56.007,18.652,55.251,18.997,54.075z M22.655,44.065l0.021-0.057c0.557-1.393-0.122-2.941-1.517-3.498
		c-1.367-0.562-2.972,0.143-3.537,1.538c-0.552,1.386,0.124,2.965,1.512,3.519c0.329,0.135,0.673,0.197,1.007,0.197
		C21.218,45.765,22.23,45.117,22.655,44.065z M27.077,75.901l0.016-0.053c0.298-1.47-0.663-2.868-2.136-3.163
		c-1.458-0.306-2.895,0.684-3.198,2.153c-0.297,1.466,0.658,2.9,2.131,3.19c0.171,0.046,0.35,0.057,0.536,0.057
		C25.687,78.097,26.818,77.206,27.077,75.901z M28.796,64.872l0.005-0.053c0.152-1.491-0.94-2.791-2.434-2.94
		c-1.486-0.177-2.817,0.963-2.97,2.449c-0.15,1.491,0.937,2.821,2.428,2.978c0.091,0.01,0.184,0.01,0.274,0.01
		C27.476,67.315,28.651,66.274,28.796,64.872z M30.428,54.36l0.01-0.053c0.297-1.47-0.663-2.873-2.131-3.158
		c-1.437-0.326-2.9,0.684-3.198,2.148c-0.295,1.471,0.658,2.905,2.126,3.195c0.176,0.036,0.357,0.052,0.541,0.052
		C29.045,56.54,30.168,55.654,30.428,54.36z M32.105,43.584l0.016-0.057c0.295-1.463-0.663-2.869-2.139-3.161
		c-1.447-0.301-2.905,0.691-3.198,2.156c-0.295,1.471,0.658,2.9,2.133,3.189c0.168,0.037,0.35,0.053,0.536,0.053
		C30.715,45.765,31.844,44.874,32.105,43.584z"/>
</g>
<g>
</g>
<g>
</g>
<g>
</g>
<g>
</g>
<g>
</g>
<g>
</g>
<g>
</g>
<g>
</g>
<g>
</g>
<g>
</g>
<g>
</g>
<g>
</g>
<g>
</g>
<g>
</g>
<g>
</g>
</svg>
