<?xml version="1.0" encoding="iso-8859-1"?>
<!-- Generator: Adobe Illustrator 19.0.0, SVG Export Plug-In . SVG Version: 6.00 Build 0)  -->
<svg version="1.1" id="Capa_1" xmlns="http://www.w3.org/2000/svg" xmlns:xlink="http://www.w3.org/1999/xlink" x="0px" y="0px"
	 viewBox="0 0 512 512" style="enable-background:new 0 0 512 512;" xml:space="preserve">
<g>
	<g>
		<path d="M229.23,22.93c-1.86-1.86-4.44-2.93-7.07-2.93s-5.21,1.07-7.07,2.93c-1.86,1.86-2.93,4.44-2.93,7.07s1.07,5.21,2.93,7.07
			s4.44,2.93,7.07,2.93s5.21-1.07,7.07-2.93c1.87-1.86,2.93-4.44,2.93-7.07S231.1,24.79,229.23,22.93z"/>
	</g>
</g>
<g>
	<g>
		<path d="M502,472h-10V102c0-45.215-36.785-82-82-82H261.953c-5.523,0-10,4.477-10,10s4.477,10,10,10H410c34.187,0,62,27.813,62,62
			v370h-20V102c0-23.159-18.841-42-42-42H102c-23.159,0-42,18.841-42,42v370H40V102c0-34.187,27.813-62,62-62h76.523
			c5.523,0,10-4.477,10-10s-4.477-10-10-10H102c-45.215,0-82,36.785-82,82v370H10c-5.523,0-10,4.477-10,10s4.477,10,10,10h108
			c5.523,0,10-4.477,10-10s-4.477-10-10-10H80v-62.167h236.403c5.523,0,10-4.477,10-10s-4.477-10-10-10H80v-268h352v268h-31.64
			c-5.523,0-10,4.477-10,10s4.477,10,10,10H432V472h-38c-5.523,0-10,4.477-10,10s4.477,10,10,10h108c5.523,0,10-4.477,10-10
			S507.523,472,502,472z M80.004,101.833C80.094,89.779,89.925,80,102,80h308c12.075,0,21.906,9.779,21.996,21.833H80.004z"/>
	</g>
</g>
<g>
	<g>
		<path d="M341.646,226.366c-5.655,0-11.141,0.734-16.372,2.102l-16.011-36.759c-0.012-0.03-0.026-0.059-0.038-0.088l-0.001-0.002
			c-0.001-0.002-0.001-0.003-0.002-0.005l-2.799-6.427h30.085c2.958,0,5.365,2.407,5.365,5.365s-2.407,5.364-5.365,5.364H335.4
			c-5.523,0-10,4.477-10,10c0,5.523,4.477,10,10,10h1.108c13.986,0,25.365-11.378,25.365-25.364
			c0-13.986-11.378-25.365-25.365-25.365H291.16c-7.08,0-11.972,7.504-9.168,13.993l2.782,6.386h-68.607l-5.497-10.149
			c4.138-1.225,7.16-5.049,7.16-9.585c0-5.523-4.477-10-10-10h-13.68c-0.027,0-0.054,0-0.081,0h-17.181c-5.523,0-10,4.477-10,10
			s4.477,10,10,10h11.262l8.966,16.554l-14.669,35.756c-4.823-1.151-9.847-1.778-15.018-1.778
			c-35.694,0-64.733,29.039-64.733,64.733c0,35.694,29.039,64.734,64.733,64.734c32.294,0,59.137-23.771,63.959-54.734h30.565
			c4.038,0,7.792-2.547,9.289-6.297l7.426-18.628c-1.136,4.795-1.756,9.788-1.756,14.925c0,35.697,29.04,64.736,64.734,64.736
			c35.694,0,64.733-29.04,64.733-64.734C406.379,255.405,377.34,226.366,341.646,226.366z M193.218,254.583
			c8.837,6.259,15.308,15.635,17.803,26.517H182.34L193.218,254.583z M167.429,335.833c-24.666,0-44.733-20.067-44.733-44.734
			c0-24.666,20.067-44.733,44.733-44.733c2.484,0,4.919,0.213,7.295,0.604l-16.547,40.334c-1.265,3.084-0.91,6.596,0.947,9.365
			s4.971,4.43,8.305,4.43h43.593C206.466,320.966,188.657,335.833,167.429,335.833z M231.387,281.099
			c-2.991-19.207-14.454-35.647-30.439-45.361l8.468-20.64l35.748,66.001H231.387z M285.284,205.567l-24.711,61.988l-33.575-61.988
			L285.284,205.567L285.284,205.567z M285.621,258.733l14.824-37.186l6.508,14.943C298.183,242.081,290.849,249.719,285.621,258.733
			z M341.646,335.833c-24.667,0-44.734-20.067-44.734-44.734c0-14.724,7.153-27.805,18.163-35.961l17.402,39.954
			c1.639,3.763,5.314,6.009,9.173,6.009c1.333,0,2.688-0.268,3.988-0.834c5.063-2.205,7.38-8.098,5.175-13.161l-17.408-39.967
			c2.674-0.499,5.425-0.773,8.241-0.773c24.666,0,44.733,20.067,44.733,44.733C386.379,315.766,366.312,335.833,341.646,335.833z"/>
	</g>
</g>
<g>
	<g>
		<path d="M366.07,392.76c-1.86-1.86-4.44-2.93-7.07-2.93s-5.21,1.07-7.07,2.93c-1.86,1.86-2.93,4.44-2.93,7.07
			c0,2.64,1.07,5.21,2.93,7.08c1.86,1.86,4.44,2.92,7.07,2.92s5.21-1.06,7.07-2.92c1.86-1.87,2.93-4.44,2.93-7.08
			C369,397.2,367.93,394.62,366.07,392.76z"/>
	</g>
</g>
<g>
</g>
<g>
</g>
<g>
</g>
<g>
</g>
<g>
</g>
<g>
</g>
<g>
</g>
<g>
</g>
<g>
</g>
<g>
</g>
<g>
</g>
<g>
</g>
<g>
</g>
<g>
</g>
<g>
</g>
</svg>
