<svg xmlns="http://www.w3.org/2000/svg" viewBox="0 0 20.8 20.8">
  <defs>
    <style>
      .cls-1 {
        fill: #fff;
      }
    </style>
  </defs>
  <path id="path" class="cls-1" d="M10.509,21.855a.945.945,0,0,1-.945.945h-5.2A2.361,2.361,0,0,1,2,20.433V12.4A4.41,4.41,0,0,1,3.413,9.343l8.374-7.118a.945.945,0,0,1,1.224,0l8.375,7.118A4.409,4.409,0,0,1,22.8,12.4v8.036A2.363,2.363,0,0,1,20.436,22.8h-5.2a.945.945,0,0,1-.945-.945V16.182H10.509Zm9.927-.945a.472.472,0,0,0,.473-.476V12.4a2.559,2.559,0,0,0-.747-1.612L12.4,4.186l-7.762,6.6A2.567,2.567,0,0,0,3.891,12.4v8.036a.47.47,0,0,0,.47.476H8.618V15.236a.945.945,0,0,1,.945-.945h5.673a.945.945,0,0,1,.945.945v5.673Z" transform="translate(-2 -2)"/>
</svg>
