<svg id="Camada_1" data-name="Camada 1" xmlns="http://www.w3.org/2000/svg" xmlns:xlink="http://www.w3.org/1999/xlink" viewBox="0 0 300 300"><defs><style>.cls-1{fill:url(#Gradiente_sem_nome_4);}.cls-2{fill:#fff;}</style><linearGradient id="Gradiente_sem_nome_4" x1="85.42" y1="278.33" x2="259.58" y2="-23.33" gradientUnits="userSpaceOnUse"><stop offset="0" stop-color="#ed7c00"/><stop offset="1" stop-color="#fbba00"/></linearGradient></defs><title>180602_LogoUberHack-05</title><rect class="cls-1" x="45" width="255" height="255"/><path class="cls-2" d="M255,300H0V45H255ZM4.18,295.82H250.82V49.18H4.18Z"/><path class="cls-2" d="M180,147a16.41,16.41,0,0,0-5.58,1l-6.48-13.23,11.43-11.43a1.74,1.74,0,0,0,.37-1.9,1.72,1.72,0,0,0-1.6-1.07H161.83a1.74,1.74,0,0,0,0,3.48H173.9l-8.82,8.83H137.41l-1.1-3.19h2.26a1.74,1.74,0,1,0,0-3.48h-9.41a1.74,1.74,0,1,0,0,3.48h3.47l1.47,4.26-7.87,14.5a16.3,16.3,0,1,0,10.11,15.08,15.11,15.11,0,0,0-.08-1.51l3-.61a5.94,5.94,0,0,0,11.17-2.83,6.06,6.06,0,0,0-.19-1.48l18.95-11.59,2.07,4.23A16.3,16.3,0,1,0,180,147Zm-52.35,6a13,13,0,0,1,4.52,6.11l-8.8,1.78ZM120,176.15a12.83,12.83,0,1,1,4.53-24.82L118.5,162.5a1.74,1.74,0,0,0,1.53,2.57,2,2,0,0,0,.34,0l12.46-2.52c0,.27,0,.54,0,.82A12.83,12.83,0,0,1,120,176.15Zm18.55-18.35-3,.61a16.45,16.45,0,0,0-6.29-8.5l6.35-11.7,5.33,15.4A5.94,5.94,0,0,0,138.58,157.8Zm5.92,3a2.46,2.46,0,1,1,2.46-2.46A2.47,2.47,0,0,1,144.5,160.84Zm3.93-6.9a5.92,5.92,0,0,0-3.93-1.5h-.25l-5.63-16.29h26.09l2.95,6ZM180,176.15a12.82,12.82,0,0,1-7.16-23.46l5.6,11.4a1.73,1.73,0,0,0,1.56,1,1.77,1.77,0,0,0,.77-.18,1.75,1.75,0,0,0,.79-2.33l-5.59-11.41a12.82,12.82,0,1,1,4,25Z"/></svg>